<svg width="35" height="43" viewBox="0 0 35 43" fill="none" xmlns="http://www.w3.org/2000/svg">
<path id="apartment" d="M0 42.895V9.53222H7.77778V0H27.2222V19.0644H35V42.895H19.4444V33.3628H15.5556V42.895H0ZM3.88889 38.1289H7.77778V33.3628H3.88889V38.1289ZM3.88889 28.5967H7.77778V23.8306H3.88889V28.5967ZM3.88889 19.0644H7.77778V14.2983H3.88889V19.0644ZM11.6667 28.5967H15.5556V23.8306H11.6667V28.5967ZM11.6667 19.0644H15.5556V14.2983H11.6667V19.0644ZM11.6667 9.53222H15.5556V4.76611H11.6667V9.53222ZM19.4444 28.5967H23.3333V23.8306H19.4444V28.5967ZM19.4444 19.0644H23.3333V14.2983H19.4444V19.0644ZM19.4444 9.53222H23.3333V4.76611H19.4444V9.53222ZM27.2222 38.1289H31.1111V33.3628H27.2222V38.1289ZM27.2222 28.5967H31.1111V23.8306H27.2222V28.5967Z" fill="#A9592C"/>
</svg>
