<svg width="52" height="40" viewBox="0 0 52 40" fill="none" xmlns="http://www.w3.org/2000/svg">
<g id="car icon">
<path id="Vector" d="M12.7308 36.6154C15.1736 36.6154 17.1538 34.239 17.1538 31.3077C17.1538 28.3763 15.1736 26 12.7308 26C10.288 26 8.30768 28.3763 8.30768 31.3077C8.30768 34.239 10.288 36.6154 12.7308 36.6154Z" stroke="#A9592C" stroke-width="5" stroke-linecap="round" stroke-linejoin="round"/>
<path id="Vector_2" d="M38.3846 36.6154C41.316 36.6154 43.6923 34.239 43.6923 31.3077C43.6923 28.3763 41.316 26 38.3846 26C35.4532 26 33.0769 28.3763 33.0769 31.3077C33.0769 34.239 35.4532 36.6154 38.3846 36.6154Z" stroke="#A9592C" stroke-width="5" stroke-linecap="round" stroke-linejoin="round"/>
<path id="Vector_3" d="M8.11111 31.3077H3V15.8671L8.11111 3H31.1111L41.3333 15.8671H43.8889C45.2444 15.8671 46.5445 16.4094 47.503 17.3746C48.4615 18.3398 49 19.649 49 21.014V31.3077H43.8889M33.6667 31.3077H18.3333M3 15.8671H41.3333M26 15.8671V3" stroke="#A9592C" stroke-width="5" stroke-linecap="round" stroke-linejoin="round"/>
</g>
</svg>
