<svg width="112" height="25" viewBox="0 0 112 25" fill="none" xmlns="http://www.w3.org/2000/svg">
<g id="social media ">
<path id="Vector" d="M18.25 1H6.75C3.57436 1 1 3.57436 1 6.75V18.25C1 21.4256 3.57436 24 6.75 24H18.25C21.4256 24 24 21.4256 24 18.25V6.75C24 3.57436 21.4256 1 18.25 1Z" stroke="white" stroke-width="2" stroke-linecap="round" stroke-linejoin="round"/>
<path id="Vector_2" d="M12.5 17C14.9853 17 17 14.9853 17 12.5C17 10.0147 14.9853 8 12.5 8C10.0147 8 8 10.0147 8 12.5C8 14.9853 10.0147 17 12.5 17Z" stroke="white" stroke-width="2" stroke-linecap="round" stroke-linejoin="round"/>
<path id="Vector_3" d="M19 6V6.001" stroke="white" stroke-width="2" stroke-linecap="round" stroke-linejoin="round"/>
<path id="Vector_4" d="M73 3.13799C71.75 3.74932 70.525 3.9976 69.25 4.37313C67.8487 2.79489 65.7712 2.70756 63.775 3.45363C61.7787 4.19971 60.4712 6.02374 60.5 8.116V9.36363C56.4438 9.46718 52.8313 7.62319 50.5 4.37313C50.5 4.37313 45.2725 13.6467 55.5 18.097C53.16 19.6528 50.8262 20.702 48 20.5922C52.135 22.8417 56.6413 23.6152 60.5425 22.4849C65.0175 21.1874 68.695 17.84 70.1062 12.8258C70.5272 11.3008 70.7363 9.72526 70.7275 8.14345C70.725 7.83279 72.615 4.68504 73 3.13674V3.13799Z" stroke="white" stroke-width="2" stroke-linecap="round" stroke-linejoin="round"/>
<path id="Vector_5" d="M97 9.94444V15.0556H100.818V24H105.909V15.0556H109.727L111 9.94444H105.909V7.38889C105.909 7.05 106.043 6.72499 106.282 6.48536C106.521 6.24573 106.844 6.11111 107.182 6.11111H111V1H107.182C105.494 1 103.875 1.67311 102.682 2.87126C101.489 4.06941 100.818 5.69445 100.818 7.38889V9.94444H97Z" stroke="white" stroke-width="2" stroke-linecap="round" stroke-linejoin="round"/>
</g>
</svg>
